<svg xmlns="http://www.w3.org/2000/svg" version="1.1" xmlns:xlink="http://www.w3.org/1999/xlink" viewBox="0 0 200 200"><rect width="200" height="200" fill="url('#gradient')"></rect><defs><linearGradient id="gradient" gradientTransform="rotate(45 0.5 0.5)"><stop offset="0%" stop-color="#ffffff"></stop><stop offset="100%" stop-color="#ffffff"></stop></linearGradient></defs><g><g fill="#c5050c" transform="matrix(7.242607584149979,0,0,7.242607584149979,10.122012782391465,147.0447560054371)" stroke="#0e4738" stroke-width="0.65"><path d="M0.95-10.57L4.03-10.57L4.14-9.33Q5.26-10.76 7.16-10.76L7.16-10.76Q9.16-10.76 9.86-9.17L9.86-9.17Q10.94-10.76 12.97-10.76L12.97-10.76Q16.18-10.76 16.27-6.88L16.27-6.88L16.27 0L12.97 0L12.97-6.67Q12.97-7.48 12.70-7.85Q12.42-8.22 11.70-8.22L11.70-8.22Q10.72-8.22 10.24-7.35L10.24-7.35L10.25-7.22L10.25 0L6.95 0L6.95-6.65Q6.95-7.48 6.69-7.85Q6.43-8.22 5.68-8.22L5.68-8.22Q4.74-8.22 4.24-7.35L4.24-7.35L4.24 0L0.95 0L0.95-10.57ZM18.69-13.19L21.98-13.19L21.98-10.57L23.72-10.57L23.72-8.28L21.98-8.28L21.98-3.45Q21.98-2.85 22.20-2.62Q22.41-2.38 23.05-2.38L23.05-2.38Q23.54-2.38 23.87-2.44L23.87-2.44L23.87-0.09Q22.98 0.20 22.01 0.20L22.01 0.20Q20.31 0.20 19.50-0.61Q18.69-1.41 18.69-3.04L18.69-3.04L18.69-8.28L17.34-8.28L17.34-10.57L18.69-10.57L18.69-13.19Z"></path></g></g></svg>